<svg width="232" height="60" viewBox="0 0 232 60" fill="none" xmlns="http://www.w3.org/2000/svg">
<path d="M0.18457 19.0116V29.2584L20.0209 13.8681C20.9174 13.1726 22.1633 13.1454 23.0892 13.8013L31.6742 19.8823C33.5438 21.2066 36.0369 21.2385 37.9398 19.9625L48.1379 13.1237C49.5646 12.167 50.4206 10.5622 50.4206 8.84442V0L36.204 8.86451C35.338 9.40443 34.2351 9.38236 33.3914 8.80823L24.7347 2.91681C22.8117 1.60815 20.2748 1.64518 18.3909 3.00939L2.46722 14.5404C1.03347 15.5786 0.18457 17.2414 0.18457 19.0116Z" fill="#F76302"/>
<path d="M0 35.389V45.6358L19.8363 30.2455C20.7328 29.55 21.9788 29.5229 22.9046 30.1787L31.4896 36.2597C33.3592 37.584 35.8524 37.6159 37.7552 36.3399L47.9533 29.5012C49.38 28.5444 50.2361 26.9396 50.2361 25.2219V16.3774L36.0194 25.242C35.1535 25.7819 34.0505 25.7598 33.2069 25.1857L24.5501 19.2943C22.6272 17.9856 20.0903 18.0226 18.2064 19.3868L2.28265 30.9178C0.8489 31.956 0 33.6188 0 35.389Z" fill="#F76302"/>
<path d="M0.18457 52.6073V59.805L17.5539 48.3863C19.102 47.3686 19.9845 45.598 19.8652 43.7492L19.3221 35.3311L2.36576 48.2114C0.991563 49.2552 0.18457 50.8816 0.18457 52.6073Z" fill="#F76302"/>
<path d="M75.2812 29.6083H88.4786V33.7679H75.2812V29.6083ZM75.6971 43.9023H70.7812V17.4318H90.1047V21.5536H75.6971V43.9023ZM106.181 43.9023V39.8183L105.917 38.9486V31.8015C105.917 30.415 105.501 29.3435 104.669 28.5872C103.837 27.8057 102.576 27.415 100.887 27.415C99.7528 27.415 98.631 27.5915 97.5217 27.9444C96.4377 28.2973 95.5175 28.7889 94.7612 29.4192L92.9083 25.978C93.9923 25.1461 95.278 24.5284 96.7654 24.1251C98.278 23.6965 99.8411 23.4822 101.454 23.4822C104.379 23.4822 106.635 24.1881 108.223 25.5999C109.837 26.9864 110.644 29.1419 110.644 32.0662V43.9023H106.181ZM99.8285 44.167C98.3159 44.167 96.9923 43.9149 95.8579 43.4107C94.7234 42.8813 93.8411 42.1629 93.2108 41.2553C92.6058 40.3225 92.3033 39.2763 92.3033 38.1166C92.3033 36.9822 92.568 35.9612 93.0974 35.0536C93.652 34.1461 94.5469 33.4276 95.7822 32.8982C97.0175 32.3688 98.6562 32.104 100.698 32.104H106.56V35.2427H101.039C99.4251 35.2427 98.3411 35.5074 97.7864 36.0368C97.2318 36.541 96.9545 37.1713 96.9545 37.9276C96.9545 38.7847 97.2948 39.4654 97.9755 39.9696C98.6562 40.4738 99.6016 40.7259 100.812 40.7259C101.971 40.7259 103.005 40.4612 103.912 39.9318C104.845 39.4024 105.513 38.6208 105.917 37.5872L106.711 40.4234C106.257 41.6082 105.438 42.5284 104.253 43.1839C103.093 43.8393 101.618 44.167 99.8285 44.167ZM128.168 23.4822C129.781 23.4822 131.218 23.7973 132.479 24.4276C133.765 25.0578 134.773 26.0284 135.504 27.3394C136.235 28.6251 136.601 30.2889 136.601 32.3309V43.9023H131.874V32.936C131.874 31.1461 131.445 29.8099 130.588 28.9276C129.756 28.0452 128.584 27.6041 127.071 27.6041C125.962 27.6041 124.979 27.8309 124.122 28.2847C123.265 28.7385 122.596 29.4192 122.117 30.3267C121.664 31.2091 121.437 32.3309 121.437 33.6923V43.9023H116.71V23.7091H121.21V29.1545L120.416 27.4906C121.122 26.2049 122.143 25.2217 123.479 24.541C124.84 23.8352 126.403 23.4822 128.168 23.4822Z" fill="white"/>
<path d="M155.038 43.9023V39.8183L154.773 38.9486V31.8015C154.773 30.415 154.357 29.3435 153.526 28.5872C152.694 27.8057 151.433 27.415 149.744 27.415C148.61 27.415 147.488 27.5915 146.378 27.9444C145.294 28.2973 144.374 28.7889 143.618 29.4192L141.765 25.978C142.849 25.1461 144.135 24.5284 145.622 24.1251C147.135 23.6965 148.698 23.4822 150.311 23.4822C153.236 23.4822 155.492 24.1881 157.08 25.5999C158.694 26.9864 159.5 29.1419 159.5 32.0662V43.9023H155.038ZM148.685 44.167C147.173 44.167 145.849 43.9149 144.715 43.4107C143.58 42.8813 142.698 42.1629 142.068 41.2553C141.463 40.3225 141.16 39.2763 141.16 38.1166C141.16 36.9822 141.425 35.9612 141.954 35.0536C142.509 34.1461 143.404 33.4276 144.639 32.8982C145.874 32.3688 147.513 32.104 149.555 32.104H155.416V35.2427H149.895C148.282 35.2427 147.198 35.5074 146.643 36.0368C146.089 36.541 145.811 37.1713 145.811 37.9276C145.811 38.7847 146.152 39.4654 146.832 39.9696C147.513 40.4738 148.458 40.7259 149.668 40.7259C150.828 40.7259 151.862 40.4612 152.769 39.9318C153.702 39.4024 154.37 38.6208 154.773 37.5872L155.568 40.4234C155.114 41.6082 154.294 42.5284 153.11 43.1839C151.95 43.8393 150.475 44.167 148.685 44.167ZM165.567 43.9023V15.8436H170.294V43.9023H165.567ZM178.161 51.5032C177.178 51.5032 176.195 51.3393 175.212 51.0116C174.229 50.6838 173.409 50.2301 172.754 49.6502L174.645 46.1712C175.124 46.5998 175.666 46.9402 176.271 47.1923C176.876 47.4444 177.493 47.5704 178.124 47.5704C178.981 47.5704 179.674 47.3561 180.203 46.9275C180.733 46.499 181.224 45.7805 181.678 44.7721L182.851 42.125L183.229 41.5578L190.867 23.7091H195.405L185.951 45.5284C185.321 47.041 184.615 48.2385 183.834 49.1208C183.077 50.0032 182.22 50.6208 181.262 50.9738C180.33 51.3267 179.296 51.5032 178.161 51.5032ZM182.321 44.6208L173.208 23.7091H178.124L185.535 41.1418L182.321 44.6208ZM204.34 44.167C202.651 44.167 201.025 43.9528 199.462 43.5242C197.924 43.0704 196.702 42.5284 195.794 41.8981L197.609 38.3057C198.517 38.8855 199.601 39.3645 200.861 39.7427C202.122 40.1208 203.382 40.3099 204.643 40.3099C206.13 40.3099 207.202 40.1082 207.857 39.7049C208.538 39.3015 208.878 38.7595 208.878 38.0788C208.878 37.5242 208.651 37.1082 208.198 36.8309C207.744 36.5284 207.151 36.3015 206.42 36.1503C205.689 35.999 204.87 35.8603 203.962 35.7343C203.08 35.6082 202.185 35.4444 201.277 35.2427C200.395 35.0158 199.588 34.7007 198.857 34.2973C198.126 33.8688 197.534 33.3015 197.08 32.5956C196.626 31.8898 196.399 30.957 196.399 29.7973C196.399 28.5116 196.765 27.4024 197.496 26.4696C198.227 25.5116 199.248 24.7805 200.559 24.2763C201.895 23.7469 203.471 23.4822 205.286 23.4822C206.647 23.4822 208.021 23.6335 209.408 23.936C210.794 24.2385 211.941 24.6671 212.849 25.2217L211.034 28.8141C210.076 28.2343 209.105 27.8436 208.122 27.6419C207.164 27.415 206.206 27.3015 205.248 27.3015C203.811 27.3015 202.74 27.5158 202.034 27.9444C201.353 28.373 201.013 28.915 201.013 29.5704C201.013 30.1755 201.24 30.6293 201.693 30.9318C202.147 31.2343 202.74 31.4738 203.471 31.6503C204.202 31.8267 205.008 31.978 205.891 32.104C206.798 32.2049 207.693 32.3688 208.576 32.5956C209.458 32.8225 210.265 33.1377 210.996 33.541C211.752 33.9192 212.357 34.4612 212.811 35.1671C213.265 35.8729 213.492 36.7931 213.492 37.9276C213.492 39.1881 213.113 40.2847 212.357 41.2175C211.626 42.1502 210.58 42.8813 209.219 43.4107C207.857 43.9149 206.231 44.167 204.34 44.167ZM225.163 44.167C222.945 44.167 221.23 43.5998 220.02 42.4654C218.81 41.3057 218.205 39.604 218.205 37.3603V19.2469H222.932V37.2469C222.932 38.2049 223.172 38.9486 223.651 39.478C224.155 40.0074 224.848 40.2721 225.73 40.2721C226.789 40.2721 227.672 39.9948 228.377 39.4402L229.701 42.8057C229.146 43.2595 228.466 43.5998 227.659 43.8267C226.852 44.0536 226.02 44.167 225.163 44.167ZM214.877 27.6419V23.8604H228.34V27.6419H214.877Z" fill="#F76302"/>
</svg>
