<?xml version="1.0" standalone="no"?>
<!DOCTYPE svg PUBLIC "-//W3C//DTD SVG 20010904//EN"
 "http://www.w3.org/TR/2001/REC-SVG-20010904/DTD/svg10.dtd">
<svg version="1.0" xmlns="http://www.w3.org/2000/svg"
 width="752.000000pt" height="752.000000pt" viewBox="0 0 752.000000 752.000000"
 preserveAspectRatio="xMidYMid meet">
<metadata>
Created by potrace 1.14, written by Peter Selinger 2001-2017
</metadata>
<g transform="translate(0.000000,752.000000) scale(0.100000,-0.100000)"
fill="#000000" stroke="none">
<path d="M6910 7511 c0 -8 -3 -12 -6 -8 -3 3 -28 -10 -55 -29 -27 -19 -53 -34
-59 -34 -5 0 -10 -4 -10 -10 0 -5 -4 -10 -9 -10 -5 0 -135 -79 -288 -175 -153
-97 -285 -178 -293 -182 -8 -3 -35 -20 -60 -37 -25 -17 -54 -36 -65 -42 -38
-20 -860 -534 -880 -549 -93 -72 -234 -93 -339 -50 -33 13 -62 28 -65 32 -3 4
-89 64 -191 133 -258 174 -459 311 -683 465 -48 33 -96 65 -105 70 -9 6 -44
29 -77 51 -140 96 -259 135 -410 136 -117 0 -219 -23 -316 -72 -47 -24 -352
-239 -357 -252 -2 -4 -8 -8 -14 -8 -5 0 -16 -6 -23 -12 -25 -22 -38 -32 -105
-78 -35 -25 -71 -50 -80 -57 -46 -36 -111 -83 -155 -112 -27 -19 -55 -39 -60
-45 -6 -6 -18 -15 -27 -21 -9 -5 -69 -48 -133 -95 -64 -47 -131 -95 -148 -107
-18 -12 -121 -86 -229 -165 -108 -79 -207 -150 -218 -158 -21 -14 -97 -70
-150 -110 -14 -11 -63 -46 -110 -79 -47 -33 -94 -67 -105 -76 -46 -36 -156
-115 -161 -115 -6 0 -58 -45 -104 -90 -65 -64 -114 -139 -152 -234 -20 -52
-22 -58 -38 -136 -10 -52 -14 -1390 -4 -1390 6 0 100 67 131 95 7 5 18 15 25
20 8 6 43 32 78 60 36 27 67 52 70 55 3 3 43 34 90 70 47 35 87 67 88 72 2 4
8 8 13 8 5 0 17 8 27 18 10 9 30 26 46 37 15 11 37 28 49 37 27 22 23 19 132
103 50 38 95 73 100 77 6 5 48 38 95 74 47 36 99 76 115 89 17 14 107 83 200
156 206 159 220 170 309 239 39 31 116 91 171 133 55 43 111 86 125 97 14 11
63 49 110 85 47 37 92 72 101 79 9 7 63 49 120 92 57 43 106 81 109 84 3 3 52
42 110 86 133 101 161 115 245 119 89 5 140 -12 243 -82 54 -36 99 -68 102
-72 10 -12 101 -71 110 -71 6 0 10 -4 10 -8 0 -4 14 -16 31 -26 18 -10 39 -25
48 -33 16 -14 37 -29 206 -148 47 -33 122 -86 166 -117 43 -32 84 -58 89 -58
6 0 10 -4 10 -8 0 -4 13 -16 30 -25 16 -10 35 -23 42 -30 8 -7 36 -27 63 -46
28 -19 84 -58 125 -86 148 -102 235 -130 410 -130 132 0 182 10 280 52 8 3 18
5 23 5 4 -1 7 2 7 8 0 5 5 10 12 10 13 0 391 249 396 262 2 4 8 8 13 8 8 0
227 145 256 170 7 5 16 10 21 10 4 0 17 8 28 18 11 9 154 107 319 217 165 110
306 205 313 212 7 7 16 13 20 13 13 0 89 75 131 130 61 77 103 172 122 273 13
70 19 1200 7 1220 -5 8 -8 8 -8 -2z"/>
<path d="M6575 5264 c-170 -106 -318 -200 -328 -206 -10 -7 -33 -22 -52 -33
-19 -11 -77 -47 -130 -80 -53 -33 -109 -67 -123 -76 -116 -71 -399 -250 -409
-258 -7 -6 -14 -11 -17 -11 -3 0 -91 -54 -197 -120 -184 -116 -242 -151 -264
-157 -75 -21 -168 -23 -205 -3 -9 5 -19 7 -22 5 -2 -2 -109 67 -238 155 -129
87 -320 216 -425 287 -104 70 -192 130 -195 133 -15 15 -131 90 -139 90 -6 0
-14 6 -18 13 -25 38 -274 179 -342 192 -9 2 -16 4 -16 5 0 6 -54 11 -140 15
-189 7 -297 -32 -509 -182 -76 -54 -144 -103 -150 -108 -6 -6 -33 -26 -61 -45
-27 -18 -68 -49 -91 -67 -23 -18 -46 -33 -52 -33 -6 0 -12 -4 -14 -8 -1 -4
-73 -58 -158 -119 -85 -62 -159 -116 -165 -120 -5 -5 -32 -24 -60 -43 -65 -46
-176 -127 -197 -145 -9 -7 -29 -22 -45 -32 -15 -10 -32 -21 -38 -26 -21 -16
-181 -133 -205 -149 -20 -14 -161 -116 -265 -192 -11 -8 -92 -67 -180 -130
-209 -151 -201 -145 -256 -188 -149 -117 -248 -288 -266 -463 -6 -60 -9 -1365
-3 -1365 3 0 17 9 30 20 14 10 72 56 130 101 58 44 119 91 135 104 17 13 118
92 225 175 107 83 210 163 229 178 19 15 58 45 86 67 160 123 221 170 232 180
23 19 38 31 73 55 19 13 42 32 51 42 9 10 21 18 27 18 6 0 12 4 14 8 2 5 50
44 108 88 58 43 107 82 110 85 3 3 37 29 75 59 129 99 200 154 217 169 9 9 53
43 97 75 45 33 81 63 81 68 0 4 4 8 10 8 5 0 55 36 112 81 57 44 148 114 203
156 55 42 105 81 110 87 6 6 21 19 35 29 14 9 45 33 70 52 77 59 145 86 230
89 63 3 194 -54 240 -104 3 -3 26 -19 52 -35 27 -17 48 -33 48 -37 0 -5 5 -8
10 -8 6 0 16 -5 23 -11 7 -6 73 -53 147 -105 74 -52 143 -101 152 -109 10 -8
37 -27 60 -42 24 -15 49 -34 56 -40 7 -7 17 -13 21 -13 4 0 16 -8 27 -17 11
-10 33 -27 49 -39 315 -222 414 -290 469 -319 36 -19 67 -34 69 -34 1 1 20 -4
42 -10 72 -19 119 -24 205 -24 82 0 212 25 238 45 6 6 12 8 12 5 0 -6 131 62
140 72 11 13 70 51 79 51 5 0 11 3 13 8 4 10 216 152 227 152 5 0 11 4 13 8 2
5 50 40 108 78 58 38 107 71 110 74 3 3 52 36 110 74 58 38 107 73 108 78 2 4
8 8 14 8 11 0 131 81 136 93 2 4 8 7 13 7 8 0 182 114 219 143 8 7 40 28 70
47 30 19 57 38 58 42 2 5 7 8 12 8 19 0 160 153 160 175 0 3 6 13 14 21 13 13
52 106 62 147 2 9 7 27 11 40 10 31 16 1237 6 1236 -4 0 -147 -88 -318 -195z"/>
<path d="M3009 3083 c-3 -7 -120 -98 -215 -168 -15 -11 -91 -69 -168 -128 -78
-59 -152 -116 -164 -125 -28 -20 -90 -68 -112 -85 -8 -7 -53 -41 -100 -75 -47
-35 -94 -71 -105 -80 -11 -9 -85 -65 -165 -125 -80 -60 -147 -113 -150 -117
-3 -4 -19 -16 -36 -26 -17 -11 -46 -32 -65 -47 -19 -15 -70 -55 -114 -88 -44
-34 -123 -94 -175 -133 -52 -40 -169 -129 -260 -197 -341 -258 -362 -276 -422
-357 -42 -57 -105 -181 -112 -222 -3 -14 -5 -25 -6 -25 -10 0 -14 -118 -17
-553 -4 -422 -2 -513 9 -506 7 4 80 52 162 106 82 54 153 98 158 98 4 0 8 5 8
10 0 6 4 10 8 10 7 0 188 116 282 180 79 54 483 318 503 329 15 8 27 18 27 23
0 4 4 8 8 8 7 0 224 139 312 200 8 5 51 33 95 62 44 29 82 56 83 60 2 4 8 8
13 8 8 0 130 77 164 103 5 4 60 40 121 80 122 79 117 76 199 130 68 45 74 50
126 102 81 80 156 216 176 321 10 48 9 252 -1 394 -12 177 -26 378 -31 465
-22 361 -25 395 -36 368z"/>
</g>
</svg>
